<svg width="32" height="32" viewBox="0 0 32 32" fill="none" xmlns="http://www.w3.org/2000/svg">
<rect opacity="0.01" width="32" height="32" fill="#212529"/>
<path d="M16 20C19.0837 19.9981 21.9792 21.3944 23.814 23.7526L24 24L21.2779 23.9995C19.7924 22.7191 17.9387 21.9986 16 22C14.0609 21.9986 12.2069 22.7193 10.7212 24.0003L8 24C9.8213 21.4923 12.81 19.998 16 20Z" fill="#6C757D"/>
<path fill-rule="evenodd" clip-rule="evenodd" d="M16 8C18.7614 8 21 10.2386 21 13C21 15.7614 18.7614 18 16 18C13.2386 18 11 15.7614 11 13C11 10.2386 13.2386 8 16 8ZM16 10C14.3431 10 13 11.3431 13 13C13 14.6569 14.3431 16 16 16C17.6569 16 19 14.6569 19 13C19 11.3431 17.6569 10 16 10Z" fill="#6C757D"/>
<path fill-rule="evenodd" clip-rule="evenodd" d="M6.66 4C5.19067 4 4 5.19067 4 6.66V25.34C4 26.8091 5.19092 28 6.66 28H25.34C26.8091 28 28 26.8091 28 25.34V6.66C28 5.19067 26.8093 4 25.34 4H6.66ZM6.00038 7.01643C6.00038 6.46415 6.4481 6.01643 7.00039 6.01643H25.0469C25.5992 6.01643 26.0469 6.46415 26.0469 7.01643V25.0407C26.0469 25.593 25.5992 26.0407 25.0469 26.0407H7.00038C6.4481 26.0407 6.00038 25.593 6.00038 25.0407V7.01643Z" fill="#6C757D"/>
</svg>
