<svg width="24" height="24" viewBox="0 0 24 24" fill="none" xmlns="http://www.w3.org/2000/svg">
<path fill-rule="evenodd" clip-rule="evenodd" d="M2.66 0C1.19067 0 0 1.19067 0 2.66V21.34C0 22.8091 1.19092 24 2.66 24H21.34C22.8091 24 24 22.8091 24 21.34V2.66C24 1.19067 22.8093 0 21.34 0H2.66ZM2.00038 3.01643C2.00038 2.46415 2.4481 2.01643 3.00039 2.01643H21.0469C21.5992 2.01643 22.0469 2.46415 22.0469 3.01643V21.0407C22.0469 21.593 21.5992 22.0407 21.0469 22.0407H3.00038C2.4481 22.0407 2.00038 21.593 2.00038 21.0407V3.01643Z" fill="#F2625A"/>
<path fill-rule="evenodd" clip-rule="evenodd" d="M2.00038 3.01643C2.00038 2.46415 2.4481 2.01643 3.00039 2.01643H21.0469C21.5992 2.01643 22.0469 2.46415 22.0469 3.01643V21.0407C22.0469 21.593 21.5992 22.0407 21.0469 22.0407H3.00038C2.4481 22.0407 2.00038 21.593 2.00038 21.0407V3.01643ZM19.814 19.7526C17.9792 17.3944 15.0837 15.9981 12 16C8.81 15.998 5.8213 17.4923 4 20L6.72122 20.0003C8.20687 18.7193 10.0609 17.9986 12 18C13.9387 17.9986 15.7924 18.7191 17.2779 19.9995L20 20L19.814 19.7526ZM17 9C17 6.23858 14.7614 4 12 4C9.23858 4 7 6.23858 7 9C7 11.7614 9.23858 14 12 14C14.7614 14 17 11.7614 17 9Z" fill="#F2625A"/>
<path d="M12 6C10.3431 6 9 7.34315 9 9C9 10.6569 10.3431 12 12 12C13.6569 12 15 10.6569 15 9C15 7.34315 13.6569 6 12 6Z" fill="#F2625A"/>
</svg>
