<svg width="28" height="25" viewBox="0 0 28 25" fill="none" xmlns="http://www.w3.org/2000/svg">
<path fill-rule="evenodd" clip-rule="evenodd" d="M14 7.6087C10.7288 7.6087 8.07692 10.2853 8.07692 13.587C8.07692 16.8887 10.7288 19.5652 14 19.5652C17.2712 19.5652 19.9231 16.8887 19.9231 13.587C19.9231 10.2853 17.2712 7.6087 14 7.6087ZM10.2308 13.587C10.2308 11.4859 11.9183 9.78261 14 9.78261C16.0817 9.78261 17.7692 11.4859 17.7692 13.587C17.7692 15.688 16.0817 17.3913 14 17.3913C11.9183 17.3913 10.2308 15.688 10.2308 13.587Z" fill="white"/>
<path fill-rule="evenodd" clip-rule="evenodd" d="M9.69152 0C9.33145 0 8.9952 0.181632 8.79547 0.484022L6.96132 3.26087H3.23077C2.37392 3.26087 1.55216 3.60443 0.94627 4.21596C0.340384 4.82749 0 5.6569 0 6.52174V21.7391C0 22.604 0.340384 23.4334 0.94627 24.0449C1.55216 24.6564 2.37392 25 3.23077 25H24.7692C25.6261 25 26.4478 24.6564 27.0537 24.0449C27.6596 23.4334 28 22.604 28 21.7391V6.52174C28 5.6569 27.6596 4.82749 27.0537 4.21596C26.4478 3.60443 25.6261 3.26087 24.7692 3.26087H21.0371L19.203 0.484022C19.0032 0.181632 18.667 0 18.3069 0H9.69152ZM8.43373 4.95076L10.2679 2.17391H17.7306L19.5647 4.95076C19.7644 5.25315 20.1007 5.43478 20.4608 5.43478H24.7692C25.0548 5.43478 25.3288 5.5493 25.5307 5.75314C25.7327 5.95699 25.8462 6.23346 25.8462 6.52174V21.7391C25.8462 22.0274 25.7327 22.3039 25.5307 22.5077C25.3288 22.7116 25.0548 22.8261 24.7692 22.8261H3.23077C2.94515 22.8261 2.67123 22.7116 2.46927 22.5077C2.26731 22.3039 2.15385 22.0274 2.15385 21.7391V6.52174C2.15385 6.23346 2.26731 5.95699 2.46927 5.75314C2.67123 5.5493 2.94515 5.43478 3.23077 5.43478H7.53767C7.89775 5.43478 8.234 5.25315 8.43373 4.95076Z" fill="white"/>
</svg>
