<svg width="32" height="32" viewBox="0 0 32 32" fill="none" xmlns="http://www.w3.org/2000/svg">
<path fill-rule="evenodd" clip-rule="evenodd" d="M4 7C4 5.34315 5.34315 4 7 4H12C13.6569 4 15 5.34315 15 7V12C15 13.6569 13.6569 15 12 15H7C5.34315 15 4 13.6569 4 12V7ZM7 6H12C12.5523 6 13 6.44772 13 7V12C13 12.5523 12.5523 13 12 13H7C6.44772 13 6 12.5523 6 12V7C6 6.44772 6.44772 6 7 6Z" fill="#6C757D"/>
<path fill-rule="evenodd" clip-rule="evenodd" d="M4 20C4 18.3431 5.34315 17 7 17H12C13.6569 17 15 18.3431 15 20V25C15 26.6569 13.6569 28 12 28H7C5.34315 28 4 26.6569 4 25V20ZM7 19H12C12.5523 19 13 19.4477 13 20V25C13 25.5523 12.5523 26 12 26H7C6.44772 26 6 25.5523 6 25V20C6 19.4477 6.44772 19 7 19Z" fill="#6C757D"/>
<path fill-rule="evenodd" clip-rule="evenodd" d="M20 4C18.3431 4 17 5.34315 17 7V12C17 13.6569 18.3431 15 20 15H25C26.6569 15 28 13.6569 28 12V7C28 5.34315 26.6569 4 25 4H20ZM25 6H20C19.4477 6 19 6.44772 19 7V12C19 12.5523 19.4477 13 20 13H25C25.5523 13 26 12.5523 26 12V7C26 6.44772 25.5523 6 25 6Z" fill="#6C757D"/>
<path fill-rule="evenodd" clip-rule="evenodd" d="M17 20C17 18.3431 18.3431 17 20 17H25C26.6569 17 28 18.3431 28 20V25C28 26.6569 26.6569 28 25 28H20C18.3431 28 17 26.6569 17 25V20ZM20 19H25C25.5523 19 26 19.4477 26 20V25C26 25.5523 25.5523 26 25 26H20C19.4477 26 19 25.5523 19 25V20C19 19.4477 19.4477 19 20 19Z" fill="#6C757D"/>
</svg>
