<svg width="24" height="24" viewBox="0 0 24 24" fill="none" xmlns="http://www.w3.org/2000/svg">
<path d="M9.9 0H1.1C0.492487 0 0 0.492487 0 1.1V9.9C0 10.5075 0.492487 11 1.1 11H9.9C10.5075 11 11 10.5075 11 9.9V1.1C11 0.492487 10.5075 0 9.9 0Z" fill="#F2625A"/>
<path d="M22.9 0H14.1C13.4925 0 13 0.492487 13 1.1V9.9C13 10.5075 13.4925 11 14.1 11H22.9C23.5075 11 24 10.5075 24 9.9V1.1C24 0.492487 23.5075 0 22.9 0Z" fill="#F2625A"/>
<path d="M9.9 13H1.1C0.492487 13 0 13.4925 0 14.1V22.9C0 23.5075 0.492487 24 1.1 24H9.9C10.5075 24 11 23.5075 11 22.9V14.1C11 13.4925 10.5075 13 9.9 13Z" fill="#F2625A"/>
<path d="M22.9 13H14.1C13.4925 13 13 13.4925 13 14.1V22.9C13 23.5075 13.4925 24 14.1 24H22.9C23.5075 24 24 23.5075 24 22.9V14.1C24 13.4925 23.5075 13 22.9 13Z" fill="#F2625A"/>
</svg>
