<svg width="175" height="170" viewBox="0 0 175 170" fill="none" xmlns="http://www.w3.org/2000/svg">
<path d="M110.396 47.2742C110.128 34.3744 99.614 24 86.6833 24C73.7527 24 63.2388 34.3744 62.9702 47.2742H72.3938C72.6596 39.5912 78.9555 33.4446 86.6833 33.4446C94.4111 33.4446 100.707 39.5912 100.973 47.2742H110.396Z" fill="#F2625A"/>
<path d="M129.989 57.0106L123.775 128.861C123.632 130.504 122.234 131.766 120.559 131.766H64.6445V141L55.6917 131.766L52.377 128.346L44 119.705L51.0017 112.481L55.7499 107.583L64.6445 98.41V107.641H104.936V116.814L110.94 110.623L125.583 95.5191L104.936 74.2241V83.4548H48.4924L46.204 57.0077C46.0412 55.1559 47.5299 53.5645 49.4199 53.5645H126.77C128.663 53.5645 130.146 55.1559 129.989 57.0106Z" fill="#F2625A"/>
<path d="M101.734 123.328L102.892 116.725L62.6292 109.867L64.6442 98.4097V107.64H104.936V116.814L110.937 110.623L115.781 105.628L119.178 110.614L101.734 123.328Z" fill="#D04B53"/>
</svg>
