<svg width="24" height="24" viewBox="0 0 24 24" fill="none" xmlns="http://www.w3.org/2000/svg">
<path d="M23.3455 9.36042L13.3447 0.509044C12.9773 0.181582 12.4973 -3.28829e-05 11.9992 4.46573e-09C11.5012 3.28919e-05 11.0212 0.181711 10.6539 0.509222L0.654793 9.36036C0.448787 9.543 0.284166 9.76545 0.171444 10.0135C0.0587225 10.2616 0.000377253 10.5298 0.000134163 10.8011V22.0083C-0.00560098 22.4976 0.172712 22.9721 0.501464 23.3423C0.688753 23.5495 0.919381 23.7154 1.17789 23.8288C1.4364 23.9422 1.71683 24.0005 2.00037 23.9998H7.9957C8.26091 23.9998 8.51526 23.8973 8.7028 23.7147C8.89033 23.5321 8.99569 23.2845 8.99569 23.0263V17.1842C8.99569 16.926 9.10105 16.6784 9.28858 16.4958C9.47612 16.3132 9.73047 16.2107 9.99568 16.2107H13.9957C14.2609 16.2107 14.5152 16.3132 14.7028 16.4958C14.8903 16.6784 14.9957 16.926 14.9957 17.1842V23.0263C14.9957 23.2845 15.101 23.5321 15.2885 23.7147C15.4761 23.8973 15.7304 23.9998 15.9957 23.9998H22.0028C22.3313 24.004 22.6555 23.9263 22.9445 23.774C23.2635 23.6064 23.53 23.3579 23.7158 23.0549C23.9016 22.7519 23.9998 22.4057 24 22.0528V10.8011C23.9997 10.5299 23.9414 10.2617 23.8287 10.0136C23.716 9.76555 23.5514 9.54309 23.3455 9.36042Z" fill="#F2625A"/>
</svg>
