<svg width="24" height="24" viewBox="0 0 24 24" fill="none" xmlns="http://www.w3.org/2000/svg">
<path fill-rule="evenodd" clip-rule="evenodd" d="M12 2C12.5523 2 13 2.44772 13 3V5.17071C14.1652 5.58254 15 6.69378 15 8C15 9.30622 14.1652 10.4175 13 10.8293V21C13 21.5523 12.5523 22 12 22C11.4477 22 11 21.5523 11 21V10.8293C9.83481 10.4175 9 9.30622 9 8C9 6.69378 9.83481 5.58254 11 5.17071V3C11 2.44772 11.4477 2 12 2ZM12 9C12.5523 9 13 8.55228 13 8C13 7.44772 12.5523 7 12 7C11.4477 7 11 7.44772 11 8C11 8.55228 11.4477 9 12 9Z" fill="#F2625A"/>
<path fill-rule="evenodd" clip-rule="evenodd" d="M20 3V13.1707C21.1652 13.5825 22 14.6938 22 16C22 17.3062 21.1652 18.4175 20 18.8293V21C20 21.5523 19.5523 22 19 22C18.4477 22 18 21.5523 18 21V18.8293C16.8348 18.4175 16 17.3062 16 16C16 14.6938 16.8348 13.5825 18 13.1707V3C18 2.44772 18.4477 2 19 2C19.5523 2 20 2.44772 20 3ZM20 16C20 16.5523 19.5523 17 19 17C18.4477 17 18 16.5523 18 16C18 15.4477 18.4477 15 19 15C19.5523 15 20 15.4477 20 16Z" fill="#F2625A"/>
<path fill-rule="evenodd" clip-rule="evenodd" d="M4 15.8293C2.83481 15.4175 2 14.3062 2 13C2 11.6938 2.83481 10.5825 4 10.1707V3C4 2.44772 4.44772 2 5 2C5.55228 2 6 2.44772 6 3V10.1707C7.16519 10.5825 8 11.6938 8 13C8 14.3062 7.16519 15.4175 6 15.8293V21C6 21.5523 5.55228 22 5 22C4.44772 22 4 21.5523 4 21V15.8293ZM4 13C4 12.4477 4.44772 12 5 12C5.55228 12 6 12.4477 6 13C6 13.5523 5.55228 14 5 14C4.44772 14 4 13.5523 4 13Z" fill="#F2625A"/>
</svg>
