<svg width="24" height="24" viewBox="0 0 24 24" fill="none" xmlns="http://www.w3.org/2000/svg">
<path fill-rule="evenodd" clip-rule="evenodd" d="M3.90331 7.97403L5.10174 19.9221H18.8983L20.0967 7.97403H3.90331ZM2.97152 6.05439C3.18226 5.95004 3.4105 5.8961 3.64134 5.8961H20.3587C20.5895 5.8961 20.8177 5.95004 21.0285 6.05439C21.2392 6.15875 21.4277 6.31117 21.5817 6.5017C21.7356 6.69224 21.8516 6.9166 21.9219 7.16014C21.9923 7.40368 22.0155 7.66092 21.99 7.91507L20.7394 20.3826C20.6948 20.8273 20.5037 21.2382 20.2028 21.5366C19.9018 21.835 19.512 22 19.1081 22H4.89188C4.48795 22 4.09821 21.835 3.79723 21.5366C3.49626 21.2382 3.30519 20.8273 3.26058 20.3826L2.01004 7.91507C1.98455 7.66093 2.00774 7.40368 2.07809 7.16014C2.14844 6.9166 2.26438 6.69224 2.41833 6.5017C2.57228 6.31117 2.76078 6.15875 2.97152 6.05439Z" fill="#212529"/>
<path fill-rule="evenodd" clip-rule="evenodd" d="M12 4.07792C11.316 4.07792 10.6599 4.37894 10.1762 4.91476C9.69252 5.45058 9.42078 6.1773 9.42078 6.93506V10.0519C9.42078 10.6258 9.00086 11.0909 8.48287 11.0909C7.96488 11.0909 7.54497 10.6258 7.54497 10.0519V6.93506C7.54497 5.6262 8.01434 4.37095 8.84982 3.44545C9.68531 2.51994 10.8185 2 12 2C13.1816 2 14.3147 2.51994 15.1502 3.44545C15.9857 4.37095 16.4551 5.6262 16.4551 6.93506V10.0519C16.4551 10.6258 16.0352 11.0909 15.5172 11.0909C14.9992 11.0909 14.5793 10.6258 14.5793 10.0519V6.93506C14.5793 6.1773 14.3075 5.45058 13.8238 4.91476C13.3401 4.37894 12.6841 4.07792 12 4.07792Z" fill="#212529"/>
</svg>
