<svg width="24" height="24" viewBox="0 0 24 24" fill="none" xmlns="http://www.w3.org/2000/svg">
<path d="M20.2495 6L3.74951 6.00004" stroke="#F2625A" stroke-width="2" stroke-linecap="round" stroke-linejoin="round"/>
<path d="M9.75 9.75V15.75" stroke="#F2625A" stroke-width="2" stroke-linecap="round" stroke-linejoin="round"/>
<path d="M14.25 9.75V15.75" stroke="#F2625A" stroke-width="2" stroke-linecap="round" stroke-linejoin="round"/>
<path d="M18.75 6V20.25C18.75 20.4489 18.671 20.6397 18.5303 20.7803C18.3897 20.921 18.1989 21 18 21H6C5.80109 21 5.61032 20.921 5.46967 20.7803C5.32902 20.6397 5.25 20.4489 5.25 20.25V6" stroke="#F2625A" stroke-width="2" stroke-linecap="round" stroke-linejoin="round"/>
<path d="M15.75 6V4.5C15.75 4.10218 15.592 3.72064 15.3107 3.43934C15.0294 3.15804 14.6478 3 14.25 3H9.75C9.35218 3 8.97064 3.15804 8.68934 3.43934C8.40804 3.72064 8.25 4.10218 8.25 4.5V6" stroke="#F2625A" stroke-width="2" stroke-linecap="round" stroke-linejoin="round"/>
</svg>
