<svg width="32" height="32" viewBox="0 0 32 32" fill="none" xmlns="http://www.w3.org/2000/svg">
<path d="M27.0643 13.1047C26.5585 13.1047 26.1285 12.6748 26.1285 12.169V7.79381C26.1285 6.73163 25.2687 5.87177 24.2065 5.87177H19.8566C19.3508 5.87177 18.9209 5.44184 18.9209 4.93604C18.9209 4.43023 19.3508 4.0003 19.8566 4.0003H24.2065C26.3056 4.0003 28 5.69474 28 7.79381V12.1437C28 12.6748 27.5701 13.1047 27.0643 13.1047Z" fill="#212529"/>
<path d="M4.91011 18.9212C5.41592 18.9212 5.84585 19.3511 5.84585 19.8569V24.2068C5.84585 25.269 6.70571 26.1289 7.76789 26.1289H12.1431C12.6489 26.1289 13.0788 26.5588 13.0788 27.0646C13.0788 27.5704 12.6489 28.0003 12.1431 28.0003H7.79318C5.69411 28.0003 3.99967 26.3059 3.99967 24.2068V19.8569C3.97438 19.3511 4.40431 18.9212 4.91011 18.9212Z" fill="#212529"/>
<path d="M7.7679 4H12.1431C12.6489 4 13.0788 4.42993 13.0788 4.93573C13.0788 5.44153 12.6489 5.87147 12.1431 5.87147H7.79319C6.731 5.87147 5.87114 6.73133 5.87114 7.79351V12.1434C5.87114 12.6492 5.44121 13.0791 4.93541 13.0791C4.42961 13.0791 3.99967 12.6492 3.99967 12.1434V7.79351C3.97438 5.69443 5.66882 4 7.7679 4Z" fill="#212529"/>
<path d="M19.8313 26.1541H24.2065C25.2687 26.1541 26.1285 25.2943 26.1285 24.2321V19.8569C26.1285 19.3511 26.5585 18.9212 27.0643 18.9212C27.5701 18.9212 28 19.3511 28 19.8569V24.2068C28 26.3059 26.3056 28.0003 24.2065 28.0003H19.8566C19.3508 28.0003 18.9209 27.5704 18.9209 27.0646C18.9209 26.5588 19.3255 26.1541 19.8313 26.1541Z" fill="#212529"/>
<path d="M12.573 19.7558C12.927 19.3764 13.534 19.3764 13.8881 19.7305C14.1915 20.0087 14.9502 20.3122 15.9618 20.3122C16.9734 20.3122 17.7574 20.0087 18.0356 19.7305C18.415 19.3764 18.9966 19.3764 19.3507 19.7558C19.7048 20.1351 19.7048 20.7168 19.3254 21.0709C18.6173 21.7537 17.3528 22.1583 15.9618 22.1583C14.5709 22.1583 13.3064 21.7537 12.5983 21.0709C12.2442 20.7168 12.2189 20.1098 12.573 19.7558Z" fill="#212529"/>
<path d="M22.0822 11.1823V12.6491C22.0822 13.1549 21.6523 13.5849 21.1465 13.5849C20.6407 13.5849 20.2108 13.1549 20.2108 12.6491V11.1823C20.2108 10.6765 20.6407 10.2466 21.1465 10.2466C21.6523 10.2466 22.0822 10.6512 22.0822 11.1823Z" fill="#212529"/>
<path d="M9.89236 12.6491V11.1823C9.89236 10.6765 10.3223 10.2466 10.8281 10.2466C11.3339 10.2466 11.7638 10.6765 11.7638 11.1823V12.6491C11.7638 13.1549 11.3339 13.5849 10.8281 13.5849C10.3223 13.5849 9.89236 13.1549 9.89236 12.6491Z" fill="#212529"/>
<path d="M16.5942 17.6061C16.5183 17.6061 16.4425 17.6061 16.3666 17.5808L15.1527 17.2773C14.748 17.1761 14.4445 16.7968 14.4445 16.3669V13.2056C14.4445 12.6998 14.8745 12.2699 15.3803 12.2699C15.8861 12.2699 16.316 12.6998 16.316 13.2056V15.6334L16.8218 15.7599C17.3276 15.8863 17.6311 16.3922 17.5046 16.898C17.3782 17.3279 16.9988 17.6061 16.5942 17.6061Z" fill="#212529"/>
</svg>
