<svg width="32" height="32" viewBox="0 0 32 32" fill="none" xmlns="http://www.w3.org/2000/svg">
<path fill-rule="evenodd" clip-rule="evenodd" d="M14.6538 4.50653C15.022 4.18062 15.5017 4.00002 15.9992 4C16.4968 3.99998 16.9765 4.18055 17.3447 4.50644L27.3454 13.3588C27.5516 13.5413 27.7163 13.7638 27.829 14.0119C27.9418 14.26 28 14.5283 28 14.7997V26.0527C28 26.3084 27.9483 26.5617 27.8477 26.798C27.7472 27.0342 27.5999 27.2489 27.4141 27.4297C27.2284 27.6106 27.0079 27.754 26.7652 27.8518C26.5225 27.9497 26.2624 28 25.9997 28L19.999 27.9992C19.4686 27.9992 18.96 27.794 18.585 27.4288C18.2099 27.0636 17.9993 26.5683 17.9993 26.0519V20.2099L13.9993 20.2099V26.0519C13.9993 26.5683 13.7886 27.0636 13.4136 27.4288C13.0386 27.794 12.5299 27.9992 11.9995 27.9992L6.00026 28C5.73759 28 5.47749 27.9497 5.23481 27.8518C4.99213 27.754 4.77162 27.6106 4.58587 27.4297C4.40013 27.2489 4.25279 27.0342 4.15226 26.7979C4.05174 26.5617 4 26.3084 4 26.0527V14.7996C4 14.5283 4.05822 14.26 4.17094 14.0119C4.28365 13.7638 4.44837 13.5414 4.65453 13.3588L14.6538 4.50653ZM26 14.7997L15.9993 5.94731L6 14.7996V26.0527L11.9993 26.0519V20.2099C11.9993 19.6934 12.21 19.1981 12.5851 18.8329C12.9601 18.4677 13.4688 18.2626 13.9993 18.2626H17.9993C18.5297 18.2626 19.0384 18.4677 19.4135 18.8329C19.7886 19.1981 19.9993 19.6934 19.9993 20.2099V26.0519L26 26.0527V14.7997Z" fill="#6C757D"/>
</svg>
