<svg width="24" height="24" viewBox="0 0 24 24" fill="none" xmlns="http://www.w3.org/2000/svg">
<path fill-rule="evenodd" clip-rule="evenodd" d="M11.8013 2C10.5262 2.06758 8.76504 2.53673 7.26943 3.75497C5.63741 5.08434 4.40056 7.24411 4.40056 10.4952C4.40056 13.7117 3.74021 15.4798 3.23495 16.3649C3.08272 16.6301 3.00169 16.9313 3.00003 17.2385C2.99836 17.5463 3.0765 17.8492 3.22657 18.1166C3.37664 18.3839 3.59333 18.6062 3.85478 18.7611C4.11623 18.916 4.41319 18.998 4.71572 18.9988L4.71825 18.9988H19.2818L19.2843 18.9988C19.5868 18.998 19.8837 18.916 20.1451 18.7612C20.4066 18.6063 20.6232 18.384 20.7733 18.1167C20.9234 17.8495 21.0016 17.5466 21 17.2388C20.9984 16.9318 20.9174 16.6306 20.7654 16.3655C20.2603 15.4804 19.6002 13.7122 19.6002 10.4952V10.3386C18.9987 10.6522 18.3374 10.8637 17.6383 10.9507C17.692 13.8652 18.2573 15.7772 18.8666 16.9979H5.13353C5.77436 15.7146 6.36653 13.6676 6.36653 10.4952C6.36653 7.82525 7.35202 6.25048 8.4979 5.3171C9.32088 4.64674 10.2665 4.27643 11.0807 4.10737C11.1908 3.34951 11.4401 2.6378 11.8013 2ZM20.7654 16.3655L20.7641 16.3633L19.9159 16.869L20.7659 16.3664L20.7654 16.3655Z" fill="#212529"/>
<path d="M8.06805 20.9996C8.06805 20.4471 8.50815 19.9992 9.05103 19.9992H14.949C15.4918 19.9992 15.9319 20.4471 15.9319 20.9996C15.9319 21.5521 15.4918 22 14.949 22H9.05103C8.50815 22 8.06805 21.5521 8.06805 20.9996Z" fill="#212529"/>
<circle cx="17" cy="5" r="4" fill="#DE350B"/>
</svg>
