<svg width="18" height="16" viewBox="0 0 18 16" fill="none" xmlns="http://www.w3.org/2000/svg">
<path d="M16.5 0H1.5C1.10231 0.000471662 0.721048 0.164512 0.439842 0.456133C0.158636 0.747754 0.000454817 1.14314 0 1.55556V5.44444C0.000454817 5.85686 0.158636 6.25225 0.439842 6.54387C0.721048 6.83549 1.10231 6.99953 1.5 7H16.5C16.8977 6.99953 17.279 6.83549 17.5602 6.54387C17.8414 6.25225 17.9995 5.85686 18 5.44444V1.55556C17.9995 1.14314 17.8414 0.747754 17.5602 0.456133C17.279 0.164512 16.8977 0.000471662 16.5 0Z" fill="#F2625A"/>
<path d="M16.5 9H1.5C1.10231 9.00047 0.721048 9.16451 0.439842 9.45613C0.158636 9.74775 0.000454817 10.1431 0 10.5556V14.4444C0.000454817 14.8569 0.158636 15.2522 0.439842 15.5439C0.721048 15.8355 1.10231 15.9995 1.5 16H16.5C16.8977 15.9995 17.279 15.8355 17.5602 15.5439C17.8414 15.2522 17.9995 14.8569 18 14.4444V10.5556C17.9995 10.1431 17.8414 9.74775 17.5602 9.45613C17.279 9.16451 16.8977 9.00047 16.5 9Z" fill="#F2625A"/>
</svg>
