<svg width="24" height="24" viewBox="0 0 24 24" fill="none" xmlns="http://www.w3.org/2000/svg">
<path d="M23.9999 7.68C23.9993 7.17096 23.8046 6.68294 23.4585 6.323C23.1124 5.96305 22.6432 5.76058 22.1537 5.76H18.4614V1.92C18.4609 1.41096 18.2662 0.922942 17.9201 0.562998C17.574 0.203054 17.1048 0.000582166 16.6153 0H1.84614C1.35669 0.000582166 0.88744 0.203054 0.541342 0.562998C0.195244 0.922942 0.000559772 1.41096 3.64437e-10 1.92V17.28C-4.89597e-06 17.4612 0.0493282 17.6388 0.142293 17.7921C0.235258 17.9454 0.368055 18.0682 0.525325 18.1463C0.682594 18.2244 0.85791 18.2546 1.03099 18.2334C1.20407 18.2122 1.36785 18.1405 1.50337 18.0265L5.53843 14.634L5.53855 18.24C5.53911 18.749 5.73379 19.2371 6.07989 19.597C6.42599 19.9569 6.89524 20.1594 7.3847 20.16H18.1832L22.4966 23.7865C22.6322 23.9005 22.7959 23.9722 22.969 23.9934C23.1421 24.0146 23.3174 23.9844 23.4747 23.9063C23.6319 23.8282 23.7647 23.7054 23.8577 23.5521C23.9507 23.3988 24 23.2212 24 23.04L23.9999 7.68ZM19.09 18.4535C18.9257 18.3153 18.7209 18.24 18.5097 18.24H7.3847L7.38458 14.4H16.6153C17.1048 14.3994 17.574 14.1969 17.9201 13.837C18.2662 13.4771 18.4609 12.989 18.4614 12.48V7.68H22.1537L22.1539 21.0294L19.09 18.4535Z" fill="#F2625A"/>
</svg>
