<svg width="32" height="32" viewBox="0 0 32 32" fill="none" xmlns="http://www.w3.org/2000/svg">
<path fill-rule="evenodd" clip-rule="evenodd" d="M9.5001 18.2335L5.62875 21.3637C5.3291 21.606 4.9169 21.6545 4.56916 21.4885C4.22141 21.3225 4 20.9714 4 20.5861V5.91683C4 5.40851 4.2019 4.92097 4.56133 4.56148C4.92076 4.20199 5.40829 4 5.91668 4H20.5836C21.092 4 21.5795 4.20199 21.9389 4.56148C22.2984 4.92097 22.5003 5.40851 22.5003 5.91683V9.50085H26.0837C26.5921 9.50085 27.0796 9.70284 27.439 10.0623C27.7985 10.4218 28.0004 10.9094 28.0004 11.4177V27.0038C28.0004 27.3891 27.779 27.7402 27.4312 27.9062C27.0835 28.0722 26.6713 28.0237 26.3716 27.7814L22.111 24.3365H11.4168C10.9084 24.3365 10.4209 24.1345 10.0614 23.775C9.702 23.4155 9.5001 22.928 9.5001 22.4196V18.2335ZM6 18.4915V6H20.5003V15.9188H10.5161C10.5108 15.9187 10.5054 15.9187 10.5001 15.9187C10.4948 15.9187 10.4894 15.9187 10.4841 15.9188H9.53561C9.30676 15.9188 9.08483 15.9973 8.90687 16.1412L6 18.4915ZM11.5001 17.9188V22.3365H22.4648C22.6936 22.3365 22.9155 22.415 23.0935 22.5588L26.0004 24.9092V11.5009H22.5003V16.002C22.5003 16.5103 22.2984 16.9978 21.9389 17.3573C21.5795 17.7168 21.092 17.9188 20.5836 17.9188H11.5001Z" fill="#6C757D"/>
</svg>
